#!OML:ASF F:\VICON\USERDATA\INSTALL\rory3\rory3.ASF
:FULLY-SPECIFIED
:DEGREES
1155
root -2.25516 28.6378 -8.10636 354.806 -12.0063 6.5336
lowerback 8.61009 1.55815 -2.59407
upperback 3.06417 1.82274 -0.953773
thorax -1.7008 0.899785 0.291646
lowerneck -1.18302 1.54363 -5.72184
upperneck 30.8128 2.18119 2.07097
head 9.86364 0.555439 1.90923
rclavicle -7.10655e-015 4.77083e-015
rhumerus -28.2589 -2.87867 -77.1222
rradius 31.9059
rwrist 14.5681
rhand -26.8848 3.65214
rfingers 7.12502
rthumb -0.308865 -26.3274
lclavicle -7.10655e-015 4.77083e-015
lhumerus -37.1768 21.4284 71.5301
lradius 20.6587
lwrist -9.69562
lhand -25.2254 24.1324
lfingers 7.12502
lthumb 1.29386 54.1082
rfemur -13.1418 8.01946 20.1956
rtibia 54.2102
rfoot -30.0338 -4.10594
rtoes 2.02357
lfemur -19.757 -0.594285 -21.0729
ltibia 27.4061
lfoot 15.262 12.095
ltoes -2.2152
1156
root -2.2448 28.6024 -8.06148 354.66 -11.9244 6.5673
lowerback 8.54908 1.54883 -2.59262
upperback 3.12147 1.81405 -0.950676
thorax -1.60774 0.894237 0.297547
lowerneck -1.19116 1.56087 -5.62547
upperneck 30.8336 2.22933 1.95114
head 9.87436 0.576131 1.85452
rclavicle 2.08227e-014 -1.63003e-014
rhumerus -28.4412 -2.79851 -77.0407
rradius 31.9953
rwrist 14.3431
rhand -27.4252 4.99348
rfingers 7.12502
rthumb -0.830803 -24.9846
lclavicle 2.08227e-014 -1.63003e-014
lhumerus -37.2124 21.4092 71.6209
lradius 20.8068
lwrist -9.74844
lhand -25.0362 24.7287
lfingers 7.12502
lthumb 1.47661 54.7033
rfemur -13.1501 7.78159 20.1052
rtibia 54.8579
rfoot -30.4792 -3.98609
rtoes 1.36899
lfemur -19.5274 -0.621277 -21.2914
ltibia 27.0819
lfoot 15.2569 12.8635
ltoes -2.28832
1157
root -2.23628 28.5662 -8.01914 354.558 -11.8213 6.43663
lowerback 8.53581 1.52524 -2.46386
upperback 3.13097 1.79522 -0.899124
thorax -1.5881 0.885005 0.280988
lowerneck -1.18721 1.60259 -5.64555
upperneck 30.9197 2.2854 1.97678
head 9.90272 0.601017 1.87318
rclavicle -4.52732e-014 9.54166e-015
rhumerus -28.6718 -2.81978 -76.9318
rradius 32.0897
rwrist 14.2685
rhand -27.3376 5.41684
rfingers 7.12502
rthumb -0.74619 -24.5616
lclavicle -4.52732e-014 9.54166e-015
lhumerus -37.3262 21.3076 71.7018
lradius 20.9658
lwrist -9.70051
lhand -24.9726 25.1196
lfingers 7.12502
lthumb 1.53805 55.0938
rfemur -13.1322 7.59447 20.2207
rtibia 55.4596
rfoot -30.7391 -3.95996
rtoes 1.61498
lfemur -19.3614 -0.775861 -21.3261
ltibia 26.8236
lfoot 14.7323 13.7076
ltoes -2.26391
1158
root -2.2273 28.5224 -7.97903 354.514 -11.6791 6.37769
lowerback 8.45266 1.49235 -2.42578
upperback 3.14048 1.7586 -0.869136
thorax -1.53141 0.866359 0.296553
lowerneck -1.19802 1.60149 -5.80141
upperneck 30.9599 2.27495 2.08112
head 9.91679 0.588881 1.93734
rclavicle 4.02539e-014 -1.86858e-014
rhumerus -28.8352 -2.84915 -76.8243
rradius 32.1695
rwrist 14.1922
rhand -27.2809 5.16651
rfingers 7.12502
rthumb -0.691399 -24.8121
lclavicle 4.02539e-014 -1.86858e-014
lhumerus -37.348 21.4773 71.6175
lradius 20.9796
lwrist -10.025
lhand -24.6266 25.632
lfingers 7.12502
lthumb 1.87216 55.6036
rfemur -13.2049 7.40284 20.2594
rtibia 56.0421
rfoot -30.858 -3.8985
rtoes 1.91632
lfemur -19.2937 -0.815041 -21.4618
ltibia 26.6091
lfoot 14.4964 14.6919
ltoes -1.92803
1159
root -2.21607 28.4773 -7.93652 354.433 -11.4978 6.42965
lowerback 8.40839 1.45171 -2.46969
upperback 3.17434 1.70334 -0.873832
thorax -1.47176 0.837928 0.323387
lowerneck -1.31433 1.57855 -5.93734
upperneck 31.0416 2.27063 2.0729
head 9.96913 0.569246 1.96096
rclavicle -2.40529e-014 4.77083e-015
rhumerus -29.0094 -2.89092 -76.7332
rradius 32.3226
rwrist 14.1922
rhand -27.2571 4.49876
rfingers 7.12502
rthumb -0.668403 -25.4799
lclavicle -2.40529e-014 4.77083e-015
lhumerus -37.317 21.8575 71.4625
lradius 20.9506
lwrist -10.3686
lhand -24.4586 25.6223
lfingers 7.12502
lthumb 2.03442 55.5923
rfemur -13.2339 7.14808 20.1785
rtibia 56.6068
rfoot -30.9786 -3.88986
rtoes 1.12387
lfemur -19.1859 -0.808435 -21.7585
ltibia 26.4326
lfoot 14.9086 15.5373
ltoes -1.79001
